<svg viewBox="0 0 1000 1000" xmlns="http://www.w3.org/2000/svg" id="Designer-Desk-2--Streamline-Free-Illustrations" height="1000" width="1000">
  <desc>
    Designer Desk 2 Streamline Illustration: https://streamlinehq.com
  </desc>
  <g>
    <path d="M194.86999999999998 544.0849999999999c-0.305 -0.5 -27.5 -49.459999999999994 -46.715 -82.42000000000002A4.635 4.635 0 0 0 142.25 459c-35.724999999999994 6.66 -66.465 12.25 -112.755 21.21 14.34 34.055 2.5 8.71 38.660000000000004 86.44500000000001 0.535 1.3450000000000002 1.07 2.415 2.9499999999999997 1.88 13.695 -2.685 27.39 -4.79 41.075 -7.5 22.564999999999998 -4.535 77.585 -15.61 82.69 -16.95Z" fill="#f8b6b2" stroke-width="2.5"></path>
    <path d="M379.3 336.565c-1.07 0 -2.6900000000000004 -1.88 -2.9499999999999997 -3.225 -1.665 -8.58 -31.455000000000002 -170.73000000000002 -32.214999999999996 -173.425 -1.1400000000000001 -4 0.53 -6.5 4.83 -7 15 -1.7449999999999999 230.875 -25 243.23000000000002 -26.31 2.68 -0.28 4.335 0.255 5.1 3.22 2.275 8.83 38.620000000000005 161.625 41.61 174.77a5.385 5.385 0 0 1 -5.1 6.710000000000001c-10.74 0.8250000000000001 -250.745 25.525000000000002 -254.50500000000002 25.259999999999998Z" fill="#043f6d" stroke-width="2.5"></path>
    <path d="M199.43 589.1850000000001c-1.19 -8.32 -4.185 -14.63 3.225 -16.91 5.6850000000000005 -1.755 5.635 -1.615 5.635 -11.274999999999999a43.449999999999996 43.449999999999996 0 0 1 9.395 -29.265A57.95 57.95 0 0 1 255 507.575c12.24 -2.58 15.329999999999998 -4.2 48.05500000000001 -0.27 11.5 1.3800000000000001 43.33 7.82 58 8.055 18.05 0.29000000000000004 33.945 -6.06 28.445 -23.36 -7.53 -23.814999999999998 -29.645000000000003 -33.83 -53.425000000000004 -48.86 -11.935 -7.545 -21.79 -14.31 -13.155 -27.115000000000002a41.415 41.415 0 0 1 15.84 -13.155c17.529999999999998 -9.190000000000001 16.78 -8.055 25.5 -9.399999999999999 0 -0.535 0 -1.61 0.535 -1.875 3.5 -2.685 2.375 -5.8999999999999995 1.61 -9.13a51.535000000000004 51.535000000000004 0 0 1 0.805 -21.745 9.53 9.53 0 0 1 8.86 -7c11.565000000000001 -0.8999999999999999 263.93 -27.360000000000003 274.65 -28.72a26.314999999999998 26.314999999999998 0 0 1 22.28 6.710000000000001c24.11 21.225 69.725 56.675000000000004 93.425 76.245a12.065 12.065 0 0 1 4.835 14.23c-1.135 3.3150000000000004 -2.14 14.715 -16.38 16.375 -43.224999999999994 5.04 -220.36 22.740000000000002 -280 29.8 -31.375 3.71 -64.22500000000001 -17.845 -84.565 -41.615a125.695 125.695 0 0 1 -17.185 -23.889999999999997c-0.535 -1.61 -4.050000000000001 -1.37 -4.83 -2.15 -1.88 -2.955 -4.295 -1.88 -6.710000000000001 -1.075a66.435 66.435 0 0 0 -33.565 19.87c-9.93 12.095 10.555000000000001 17.544999999999998 37.585 35.705 14.8 9.94 30.945 27.755000000000003 30.605000000000004 44.83a21.345 21.345 0 0 1 -12.08 18c-28.384999999999998 12.549999999999999 -78.135 -8.145 -112.755 -5.905 -21.5 1.3850000000000002 -39.345 9.73 -50.47 29a45.195 45.195 0 0 0 -6.444999999999999 25.5c0 2.15 0.535 3.76 3.22 4.295 5.1049999999999995 0.54 5.96 4.82 7 8.86 1.42 5.620000000000001 1.355 5.5 7 4.835 79.26 -9.26 47.5 -6.92 73.28999999999999 -9.399999999999999a19.685 19.685 0 0 1 18 11c11.86 25.905 54.965 111.295 56.11 125.37a12.184999999999999 12.184999999999999 0 0 1 -9.399999999999999 13.959999999999999 160.685 160.685 0 0 1 -31.41 9.665000000000001c-0.59 0.14 -105.165 22.055 -121.345 23.625 -4.84 0.47 -21.745 1.3450000000000002 -28.725 -2.415 -16.68 -5.215 -29.185 -34.89 -36.24 -51 -30.9 -70.565 -30.4 -72.5 -31.68 -86.71a13.274999999999999 13.274999999999999 0 0 1 10.469999999999999 -14.5c16.35 -4.13 32.730000000000004 -7.61 49.13 -11.274999999999999 10.485 -2.3499999999999996 18.57 -2.7750000000000004 19.544999999999998 -3.755Zm-64.7 50.205a3.27 3.27 0 0 0 -2.415 4.565c8.365 18.89 44.835 95.03500000000001 46.445 97.18 2 2 187.93 -34.785 188.46 -34.900000000000006a3.84 3.84 0 0 0 2.685 -5.365c-8.86 -18.400000000000002 -41.345 -87.78999999999999 -44 -93.16000000000001a3.15 3.15 0 0 0 -2.955 -1.34c-20.950000000000003 3.4899999999999998 -160.3 27.919999999999998 -188.22 33.02Zm245.64499999999998 -237.055a122.04 122.04 0 0 0 20.939999999999998 28.46c25.82 24.5 55.06999999999999 33.199999999999996 64.42999999999999 32.5 8.585 -0.655 267.135 -28.625 285.915 -30.87a13.440000000000001 13.440000000000001 0 0 0 12.620000000000001 -11.274999999999999 9.175 9.175 0 0 0 -2.685 -9.13c-31.28 -25.875 -62.629999999999995 -52.26 -93.69500000000001 -78.39a13.875 13.875 0 0 0 -11.81 -3.76c-18.745 2.765 -251.26999999999998 27.53 -277.86 30.339999999999996 -9.165 0.9650000000000001 -6.78 3.4250000000000003 -4.565 25.77 0.24 2.42 1.61 3.22 4 3.22a12.669999999999998 12.669999999999998 0 0 1 7.25 2.15 18.580000000000002 18.580000000000002 0 0 1 4.295 7.5c1.075 2.15 0 3.5 -2.415 3.5a25.72 25.72 0 0 1 -6.42 -0.015Z" fill="#043f6d" stroke-width="2.5"></path>
    <path d="M731 216.29000000000002c-2.415 -8.055 -4.565 -15.84 -7.25 -23.355A122 122 0 0 1 726.165 157.5c4 -2 9.290000000000001 9.445 16.38 16.91 5.620000000000001 5.92 6.44 13.425 8.59 20.405 1.075 3.5 2.145 6.710000000000001 3.22 10.2a1 1 0 0 0 0.805 -0.27c-0.535 -3.5 -2.685 -38.12 -2.685 -51 0 -8 6.045 -16.265 13.695 -12.620000000000001 7.335000000000001 3.5 7.95 10.834999999999999 9.125 19.06 5.64 -0.535 6.345 0 7.5 5.64a45.839999999999996 45.839999999999996 0 0 1 0 17.72c-0.555 2.21 -1.275 3.12 -2.685 2.415 -0.54 -7 -2.15 -21.21 -2.42 -21.21a42.24 42.24 0 0 0 -1.07 5.64q1.21 18.925 3.22 37.85c0 0.75 0.73 4.605 2.955 3.5a541.355 541.355 0 0 1 13.705 -59.61c1.35 -5.255 5.1 -10.175 10.469999999999999 -8.325a8.645 8.645 0 0 1 3.76 8.86c0 0.535 -0.27 0.805 -0.27 1.3450000000000002a6.645 6.645 0 0 1 4.295 6.710000000000001c0.135 6.18 0.135 12.075 0 18.255a2.71 2.71 0 0 1 -5.37 0.27 39.769999999999996 39.769999999999996 0 0 0 -0.805 -5.91c-14.105 70.53 -4.050000000000001 36.305 12.885 0.805a37.76 37.76 0 0 1 5.37 -7.245 59.894999999999996 59.894999999999996 0 0 1 7 -8.59 4.95 4.95 0 0 1 3.76 -2.42c2.415 0 2.72 1.61 2.9499999999999997 4.03 0.645 6.7 1.615 13.155 2.42 19.865 0.44499999999999995 2.24 -0.315 3.205 -15.035 35.705 -1.09 2.41 0 3.7199999999999998 1.88 4.835 2.175 1.3 4.565 2.685 6.710000000000001 3.755a8.36 8.36 0 0 1 4.295 9.399999999999999c-2.11 13.469999999999999 -19.805 111.105 -21.745 123.22 -4.734999999999999 29.535 -47.89 23.96 -77.05 17.72 -14.645 -3.13 -13.614999999999998 -12 -17.18 -27.38 -1.9300000000000002 -8.315 -23.95 -102.07499999999999 -27.650000000000002 -115.44 -3.445 -12.34 21.175 -15.985 33.809999999999995 -15.305ZM832.5 236.42499999999998c-42.955 9.13 -85.375 9.935 -127.255 -4.83 11.63 58.135000000000005 17.1 73.965 31.145 127.5 1.7399999999999998 6.645 5.949999999999999 5.795 8.32 7 32.345 3.5 44.925 7.5 59.33 0.805a12 12 0 0 0 7.785 -9.395c19.715 -105.505 13.674999999999999 -80.60499999999999 20.644999999999996 -121.08000000000001Zm-102.825 -44.835A178.05 178.05 0 0 0 740.385 230a3.96 3.96 0 0 0 1.3450000000000002 1.61c4.83 0.805 9.66 1.34 14.764999999999999 1.88 -0.81 -3.245 -13.265 -43 -13.425 -43.5 -2.415 -6.1850000000000005 -14.495000000000001 0.26 -13.425 1.6Zm100.67500000000001 -7.785c-1.34 0.27 -2.6900000000000004 1.375 -4.025 1.075 -1.08 -0.24 -1.88 -1.88 -2.955 -3.22 -7.25 16.91 -16.105 33 -22.549999999999997 50.739999999999995 4.83 -0.54 8.86 -1.075 12.885 -1.61 1.955 0 2.195 -1.18 19.06 -40.540000000000006 0.8899999999999999 -1.835 -0.95 -3.95 -2.445 -6.444999999999999Zm-38.925 -3.755c-3.76 18.5 -7 35.705 -10.74 53.69 3.76 -0.265 6.175000000000001 -0.535 8.86 -0.535 4.45 0 1.92 0.11499999999999999 13.420000000000002 -50.205 -4.055000000000001 -1.07 -7.8149999999999995 -1.88 -11.57 -2.9499999999999997Zm-16.11 53.69c-1.695 -23.71 -2.86 -34.695 -3.5 -45.64 -0.34 -5.8999999999999995 -1.075 -7 -7.25 -6.44a45.644999999999996 45.644999999999996 0 0 0 -4.83 1.34c1.61 16.915 3.22 33.83 4.565 50.739999999999995Zm-4.83 -58.5c-1.075 -8.32 -2.1 -17.19 -3.76 -25.77 -1.04 -5.375 -6.444999999999999 -2.685 -7.25 -1.3450000000000002a8.555 8.555 0 0 0 -1.61 5.1c0.42999999999999994 18.03 1.61 19.73 1.61 24.43 3.73 -0.8300000000000001 6.949999999999999 -1.655 10.98 -2.44Zm-33.025000000000006 4.565c-5.1 -7.785 -5.1 -7.785 -8.59 -6.710000000000001 -1.61 12.08 -2.685 10.2 0.805 10.2a17.305 17.305 0 0 0 7.755 -3.5149999999999997Zm91.28 -2.685c3.76 -2.145 3.76 -2.145 7.5 3.22l0.805 0q-0.395 -5.234999999999999 -0.805 -10.469999999999999a38.68 38.68 0 0 0 -4.295 -1.34c-5.114999999999999 5.61 -5.114999999999999 5.61 -3.2350000000000003 8.565000000000001Z" fill="#043f6d" stroke-width="2.5"></path>
    <path d="M56.875 848.2550000000001a27.79 27.79 0 0 1 -7.785 0 3 3 0 0 1 -2.145 -1.88c-0.27 -0.535 0.805 -1.61 1.34 -2.415a9.09 9.09 0 0 1 7.25 -2.685c47.08 -8.83 811.72 -148.5 896.935 -165.10500000000002 7.890000000000001 -1.54 12.69 6.109999999999999 6.444999999999999 7.5 -5.545 1.2650000000000001 -901.54 164.495 -902.04 164.585Z" fill="#043f6d" stroke-width="2.5"></path>
    <path d="M969.9200000000001 705.9699999999999a4.109999999999999 4.109999999999999 0 0 1 5.1 1.88c-0.535 2.9499999999999997 -2.9499999999999997 3.5 -5.365 4.295 -304.5 72.94500000000001 -878 178.26 -905.53 178.26 0 -11.485000000000001 181.515 -25.905 905.795 -184.435Z" fill="#043f6d" stroke-width="2.5"></path>
    <path d="M189.76500000000001 423.545c-7.5 6.444999999999999 -28.700000000000003 3.18 -36.24 -1.61a35.355 35.355 0 0 1 -16.375 -30.875c-0.775 -25.950000000000003 21.255000000000003 -34.56 35.165 -22.82 1.075 0.805 2.15 1.88 2.955 0a27.63 27.63 0 0 1 22 -14.764999999999999c27.05 -4.67 40.769999999999996 -7.4750000000000005 81.345 0.27 12.1 2.31 18.5 12.615 17.450000000000003 25.77a92.83 92.83 0 0 1 -21.5 51.544999999999995 26.97 26.97 0 0 1 -17.68 9.94 160.145 160.145 0 0 1 -37.32 1.34c-15.25 -1.27 -24.705 -14.43 -29.8 -18.794999999999998Zm-10.735 -47.785000000000004a56.150000000000006 56.150000000000006 0 0 0 4.83 28.185 81.76500000000001 81.76500000000001 0 0 0 22.285 27.654999999999998 19.62 19.62 0 0 0 12.355 5.1 165.89 165.89 0 0 0 43.760000000000005 -2.415 7.91 7.91 0 0 0 3.76 -2.42c14.399999999999999 -14.855 26.055 -37.53 25.235 -58.78999999999999 -0.46499999999999997 -12.04 -13.045 -15.694999999999999 -24.965000000000003 -17.450000000000003 -26.58 -3.92 -84.67 -6.555 -87.26 20.135Zm44.295 -19.065c43.795 -4.5 71.865 9.120000000000001 60.405 14.23 -20.419999999999998 9.105 -54.5 14.355 -93.425 4.295 -4.035 -1.04 -10.760000000000002 -6.5 -1.88 -11.545000000000002 6.16 -3.51 27.38 -6.21 34.900000000000006 -6.9799999999999995Zm-50.47 21.21a6.909999999999999 6.909999999999999 0 0 0 -0.805 -4.83 15.315000000000001 15.315000000000001 0 0 0 -26.31 4.565 31 31 0 0 0 19.330000000000002 41.86 34.37 34.37 0 0 0 22.28 1.07c-1.34 -1.88 -2.685 -3.5 -3.76 -5.1 -15.655 5.57 -45.910000000000004 -23.57 -26.305 -37.315a12.709999999999999 12.709999999999999 0 0 1 15.57 -0.25Zm9.395 35.705a58.16499999999999 58.16499999999999 0 0 1 -8.86 -29.26 7.734999999999999 7.734999999999999 0 0 0 -11.545000000000002 -3.5c-14.844999999999999 8.24 3.58 32.76 20.405 32.76Zm38.12 -48.32c-7.5 -3.76 -20.939999999999998 -2.42 -25.235 4.295 8.59 -1.585 16.365000000000002 -2.955 25.235 -4.295Z" fill="#043f6d" stroke-width="2.5"></path>
    <path d="M362.39 349.45c1.075 11.274999999999999 -4.795 1.605 -5.1 -0.27 -1.675 -10.235000000000001 -33.370000000000005 -175.565 -34.635 -184.435a28.144999999999996 28.144999999999996 0 0 1 12.620000000000001 -29.8 25.5 25.5 0 0 1 9.125 -2.685c6.965 -1.165 231.96 -22.174999999999997 241.62 -22.549999999999997 30.13 -1.1700000000000002 27.334999999999997 2.8299999999999996 71.14 207.255 0 5.64 -4.234999999999999 3.745 -4.83 1.34 -0.735 -2.9699999999999998 -1.9500000000000002 -5.885 -2.685 -8.855 -38.93 -157.4 -38.42 -177.53 -41.879999999999995 -183.9a16.5 16.5 0 0 0 -16.375 -9.935c-8.055 0.55 -247.815 22.5 -251.82 24.97 -9.370000000000001 5.735 -9.5 13.93 -10.74 21.475 0.27 0.27 30.875 171.82 33.56 187.39000000000001Z" fill="#043f6d" stroke-width="2.5"></path>
    <path d="M170.70499999999998 554.285c-6.15 1.205 -29 6.13 -34.36 7.25 -8.355 1.7449999999999999 -28.63 4.725 -63.36 12.350000000000001a10.455000000000002 10.455000000000002 0 0 1 -13.155 -7.5C23.27 479.545 24.5 482.13 25.2 477.235c0 -1.6600000000000001 -1.4249999999999998 -0.905 97.44999999999999 -19.865 7 -1.335 13.975 -2.62 20.939999999999998 -4.295 3.23 -0.775 4.835 1.075 6.175000000000001 3.5 33.3 59.94 19.67 38 44.565 78.39 2.15 3.5 3.805 6.949999999999999 5.905 10.205 1.375 2.125 0.265 3.735 -1.875 4.295 -1.8599999999999999 0.475 -19.86 3.295 -27.654999999999998 4.82Zm24.165 -10.2c-0.305 -0.5 -27.5 -49.459999999999994 -46.715 -82.42000000000002A4.635 4.635 0 0 0 142.25 459c-35.724999999999994 6.66 -66.465 12.25 -112.755 21.21 14.34 34.055 2.5 8.71 38.660000000000004 86.44500000000001 0.535 1.3450000000000002 1.07 2.415 2.9499999999999997 1.88 13.695 -2.685 27.39 -4.79 41.075 -7.5 22.564999999999998 -4.535 77.585 -15.61 82.69 -16.95Z" fill="#043f6d" stroke-width="2.5"></path>
    <path d="M41.04 325c-5.775 1.155 -8.53 -6.595 -2.685 -8.055 7.5 -0.8999999999999999 286.07 -25.299999999999997 295.04 -26.04 3.755 -0.31 5.1 0.265 5.37 2.9499999999999997s-0.54 4.03 -3.5 4.03C325.21000000000004 297.90500000000003 42.625 325 41.04 325Z" fill="#043f6d" stroke-width="2.5"></path>
    <path d="M877.57 465.96c-15.285 -4.165 -6.715 -0.035 -46.175 -14.764999999999999a123.845 123.845 0 0 1 -29 -17.18 17.57 17.57 0 0 0 -6.175000000000001 -2.685 9 9 0 0 1 -5.37 -15.035 55.46 55.46 0 0 1 23.36 -16.375c15.625 -6.585 31.14 -4.29 46.44 1.075 22.845 8 51.105000000000004 16.32 58 38.660000000000004a20.105 20.105 0 0 1 -8.59 22c-19.03 10.485 -24.13 6.585 -32.49 4.305Zm-68.19 -30.87a188.425 188.425 0 0 0 54.5 23.085c-3.135 -3.13 3.53 0.8300000000000001 -52.62 -23.625 -2.19 -1.4549999999999998 -3.1950000000000003 -0.12 -1.88 0.54Zm17.18 -34.900000000000006c-10.785 2.5 -26 9.22 -32.214999999999996 18.255 -2.75 4 -1.62 6.75 3.225 8.055a270.265 270.265 0 0 1 71.14 29.794999999999998c12.32 6.215000000000001 22.055 11.47 38.125 -1.875 7.5 -6.22 7.79 -11.55 2.68 -19.87a38.82 38.82 0 0 0 -17.715 -15.834999999999999c-12.61 -5.390000000000001 -25.5 -10.205 -38.660000000000004 -14.770000000000001a72.425 72.425 0 0 0 -26.58 -3.755Z" fill="#043f6d" stroke-width="2.5"></path>
    <path d="M783.34 532.275c0.535 -10.205 8.29 -14.18 17.18 -9.13 0.5 0.295 69.095 38.105000000000004 122.69 69a107.315 107.315 0 0 1 12.615 16.915c1.2349999999999999 1.87 0.63 4 -2.415 4 -23.799999999999997 -2.645 -2.685 5.739999999999999 -143.09 -73 -2.415 -2.15 -5.905 -4.295 -6.9799999999999995 -7.785Zm136.38 62.55L818.5 537.375a7.285 7.285 0 0 0 -11 1.88c-2.2 2.64 -2.135 4 0.805 5.635 46.31 25.655 104.035 59.33 105.24 59.33 1.88 -2.9499999999999997 3.76 -6.175000000000001 6.175000000000001 -9.395Zm8.59 9.125 -4.025 -6.44c-5.1049999999999995 2.145 -7.25 4.83 -7 9.125 3.775 -0.535 8.07 2.15 11.025 -2.685Zm-138 -69.26c2.145 -3.225 4.025 -6.175000000000001 6.175000000000001 -9.399999999999999a5.4 5.4 0 0 0 -7.5 2.42c-1.885 3.22 -1.08 5.905 1.335 6.9799999999999995Zm10.2 6.44c2.685 -3.5 5.1 -6.175000000000001 7.5 -9.125a8 8 0 0 0 -8.325 6.175000000000001c0.03 0.8200000000000001 0.8150000000000001 2.145 0.8150000000000001 2.9499999999999997Zm-5.37 -2.685c2.42 -4 4.295 -7 5.91 -10.2 -4.03 0.805 -6.715 2.955 -7 6.444999999999999a11.5 11.5 0 0 0 1.1 3.755Z" fill="#043f6d" stroke-width="2.5"></path>
    <path d="M286.145 427.57c16.31 2.84 11.665000000000001 36.755 -45.37 40.27 -22.134999999999998 1.3650000000000002 -70.67999999999999 -7.32 -62.285000000000004 -24.695a11.135 11.135 0 0 1 9.665000000000001 -7.5 4.234999999999999 4.234999999999999 0 0 1 -1.88 1.88 8.2 8.2 0 0 0 0.54 14.764999999999999c24.169999999999998 14.690000000000001 73.845 16.279999999999998 98.795 -4a12.445 12.445 0 0 0 2.145 -18c-0.805 -0.5700000000000001 -1.075 -1.645 -1.61 -2.72Z" fill="#043f6d" stroke-width="2.5"></path>
    <path d="M848.845 249.045c-3.9000000000000004 0 -4.6450000000000005 -3.3000000000000003 -1.88 -5.37 4.555 -4.91 62.855 -8.59 63.36 -8.59a5.11585831 5.11585831 0 0 1 0.805 10.2 544.4250000000001 544.4250000000001 0 0 1 -62.285000000000004 3.76Z" fill="#043f6d" stroke-width="2.5"></path>
    <path d="M670.3149999999999 258.17c21 -2.395 24.47 -2.7550000000000003 27.385 -1.075a3.045 3.045 0 0 1 -0.27 5.64 60.644999999999996 60.644999999999996 0 0 1 -11.545000000000002 2.955c-9.385 1.1600000000000001 -19.06 1.88 -28.725 2.415 -4.025 0.535 -11.295 -7.1450000000000005 13.155 -9.935Z" fill="#043f6d" stroke-width="2.5"></path>
    <path d="M751.39 503.81500000000005c-1.875 -2.415 -4 -5.37 -8.05 -3.76 -0.805 0.27 -8.94 0.8550000000000001 -11 -2.685 -3.865 -6.6000000000000005 -18.645 -10.5 -24.43 -11 -54.88 -5.88 -79.66499999999999 5.3100000000000005 -106.845 20.67 -5.234999999999999 2.245 -1.4349999999999998 1.105 -18.26 -4.83 -32.440000000000005 -12.165 -87.28 -9.44 -139.60000000000002 23.895a54.669999999999995 54.669999999999995 0 0 0 -16.91 16.375c-3.39 5.074999999999999 -5.955 4.195 -13.425 7.5a5 5 0 0 0 -2.955 7.785c4.295 7.25 82.15 137.72500000000002 89.13 149.805 2.15 3.76 3.76 4.565 7.785 3.76 14.770000000000001 -3.225 139.175 -27.38 166.72 -33.29a41.115 41.115 0 0 1 13.420000000000002 -1.3450000000000002 36.730000000000004 36.730000000000004 0 0 0 26.31 -7 14.085 14.085 0 0 1 7.25 -2.685c12.615 -1.61 109.26500000000001 -15.84 119.195 -17.18 29.47 -3.075 39.63 19.990000000000002 -88.33500000000001 -146.015Zm-237.855 194.905c-2 -2 -86.38 -141.25 -86.715 -141.75 2.3449999999999998 -2.3449999999999998 -5 -12.25 85.37 136.92000000000002 2.885 4.805 2.9099999999999997 3.265 1.3450000000000002 4.83Zm42.415000000000006 -13.425a288.44 288.44 0 0 1 104.97 -24.43Zm10.74 -9.665000000000001c23.355 -11.81 47.785000000000004 -19.325000000000003 72.755 -18.255a340.36499999999995 340.36499999999995 0 0 0 -72.755 18.255Zm-46.445 20.405q-45.910000000000004 -74.9 -91.815 -149.535c45.81 -39 106.97 -53.845 158.665 -35.435a29 29 0 0 1 15.3 12.350000000000001c44.230000000000004 67.78999999999999 83.47 126.045 88.85999999999999 135.035 -64.16 -19.865 -120 -2.415 -171.01 37.585Zm177.45499999999998 -38.660000000000004c-31.41 -47.25 -63.09 -95.03500000000001 -95.03500000000001 -142.82 30.095 -24.91 93.33500000000001 -27.715 124.835 -16.11 2.385 0.6 100.71 128.92 102.82 132.085a140.47 140.47 0 0 0 -68.46000000000001 2.415 249.08999999999997 249.08999999999997 0 0 0 -64.16 24.43Zm112.215 -23.085c-18.5 2.685 -38.12 5.1 -57.45 7.785 25.775000000000002 -6.9799999999999995 49.935 -9.935 57.45 -7.785Zm-83.22 19.865a1.61 1.61 0 0 1 -0.27 -1.075c6.175000000000001 -1.61 12.620000000000001 -3.5 19.330000000000002 -4.565 13.53 -2.0549999999999997 66.91 -10.105 80.805 -10.735a19.915 19.915 0 0 1 5.37 0.805c-35.43 5.37 -70.33500000000001 10.469999999999999 -105.235 15.57Z" fill="#043f6d" stroke-width="2.5"></path>
    <path d="M790.3199999999999 534.69c-5.5 -2.45 -0.885 -12.795000000000002 5.905 -9.399999999999999 -1.88 3.21 -4.025 6.175000000000001 -5.905 9.399999999999999Z" fill="#f8b6b2" stroke-width="2.5"></path>
    <path d="M317.825 706.775c-0.54 2.9499999999999997 -2.155 4.35 -4.835 4.025 -12.655000000000001 -1.535 3.89 5.75 -50.199999999999996 -26.31 -14.105 -8.36 -71.95 -39.535 -71.95 -50.199999999999996 1.315 -1.315 16.43 1 18.794999999999998 2.415 119.65 72.27000000000001 99.60000000000001 59.33500000000001 108.19000000000001 70.07Zm-56.11 -27.385c1.355 1.355 26.314999999999998 16.215 44.295 26.845 1.865 1.105 2.685 0.27 3.76 -1.07 1.075 -1.615 0 -2.41 -1.34 -3.225 -5.05 -3.065 -35.175 -21.5 -44.835 -27.115000000000002a40.225 40.225 0 0 1 -1.88 4.565Z" fill="#043f6d" stroke-width="2.5"></path>
    <path d="M656.3549999999999 340.05499999999995c4.91 0.755 1.5 -1.18 75.44 62.55 2.79 1.8599999999999999 0.745 3.76 -1.075 3.76 -10.2 1.07 -253.16 28.744999999999997 -264.16499999999996 30.335a9.399999999999999 9.399999999999999 0 0 1 -9.13 -3.76c-52.5 -63.665000000000006 -54.18 -63.5 -53.425000000000004 -65.77499999999999 2.1149999999999998 -4.2299999999999995 251.76500000000001 -27.205 252.355 -27.11Zm-202.955 46.175c-3.225 0.535 -5.64 1.07 -8.325 1.34 -2.415 0.54 -0.27 1.3450000000000002 1.3450000000000002 1.3450000000000002 9.555 -2.6550000000000002 13.645 3.635 24.695 17.450000000000003 -3.755 0.535 -6.710000000000001 0.805 -9.665000000000001 1.34 -2.685 1.075 -0.265 0.805 0 1.075a35.5 35.5 0 0 0 7.785 0 7 7 0 0 1 7.25 2.685 102.68 102.68 0 0 0 8.055 7.245c0.805 0.54 1.61 1.075 0.805 -0.805 -2.685 -2.9499999999999997 -5.1 -5.905 -8.055 -8.855a0.5 0.5 0 0 1 0.27 -0.81c4.295 -0.535 22.549999999999997 -2.9499999999999997 31.945 -3.755a5.6499999999999995 5.6499999999999995 0 0 1 3.5 1.88c6.915 6.915 16.259999999999998 17.75 13.425 12.08 -3.76 -4.565 -7.5 -9.395 -11.545000000000002 -13.959999999999999 1.075 -0.54 8.605 -1.2349999999999999 29.265 -3.5 9.399999999999999 -1 12.41 -2.205 15.3 1.075 3 3.43 6.175000000000001 6.710000000000001 9.13 10.2 1.34 2.145 2.415 1.075 0.805 -0.805 -2.685 -4.03 -5.64 -7.785 -8.59 -12.08 11.54 -1.3450000000000002 22.82 -2.685 34.36 -4.03 4 0 8.66 8.815 13.959999999999999 12.350000000000001l0.805 -0.805c-2.9499999999999997 -3.76 -5.635 -7.5 -8.59 -11.274999999999999 -0.755 -1.5 -0.95 -0.56 31.41 -4.835 3.765 -0.5 6.175000000000001 -1.07 8.86 2.685 4.835 8.595 7 9.935 5.1 5.1049999999999995 -0.805 -1.3450000000000002 -2.685 -5.1049999999999995 -3.755 -7.25a0.905 0.905 0 0 1 0.805 -1.3450000000000002c4.295 -0.535 15.04 -2.6350000000000002 24.695 -3.755 8.865 -1.03 11.57 -2.705 14.764999999999999 0.805 2.435 2.67 5.1049999999999995 5.1 7.79 7.785 1.875 2.145 2.68 1.61 1.07 -0.805l-7.5 -9.13a0.75 0.75 0 0 1 0.535 -1.34l9.13 -2.415c2.145 -0.54 1.075 -1.075 -0.27 -1.075 -12.555 1.1400000000000001 -11.555 3.41 -18.255 -4.565 -2.94 -3.5 -13.425 -12.350000000000001 -15.035 -13.959999999999999a24.529999999999998 24.529999999999998 0 0 1 2.685 -1.3450000000000002c1.88 -0.535 1.88 -1.34 -0.805 -0.805a8.655000000000001 8.655000000000001 0 0 1 -4.565 -0.265c-0.535 -0.27 -4.5600000000000005 -5.1 -5.905 -6.715 -1.61 -1.34 -1.61 -0.535 -0.805 0.54l3.5 5.635a0.905 0.905 0 0 1 -0.805 1.3450000000000002c-11.274999999999999 1.34 -22.285 2.685 -33.29 3.755 -3.585 0 -5 -2.425 -8.86 -5.635 -1.075 -1.88 -1.88 -1.075 -0.535 0.535 1.34 1.88 2.415 3.76 3.76 5.64 0.535 1.075 0.265 1.34 -0.27 1.34 -5.1 1.075 -15.305 1.32 -21.5 2.15 -15.575000000000001 2.09 -16.415 2.45 -22.549999999999997 -4.835a35.72 35.72 0 0 0 -4.565 -4.295c-0.805 -1.07 -1.34 -0.265 -0.805 0.805 2.42 2.955 5.37 6.715 8.055 9.935a0.5 0.5 0 0 1 -0.27 0.805c-4.025 0.27 -20.665 1.085 -27.919999999999998 2.415 -5.8999999999999995 1.085 -7 0.805 -11.54 -4.5600000000000005a34.8 34.8 0 0 0 -4.03 -4.835c-1.88 -2.415 -1.34 -0.535 -0.805 0.805 1.88 2.685 3.76 5.64 5.64 8.59a1 1 0 0 1 -0.54 1.3450000000000002c-12.350000000000001 1.88 -24.375 3.8 -36.5 5.635 -4.4350000000000005 0.675 -2.8949999999999996 -1 -9.935 -8.05l-0.805 0.805c1.615 2.685 3.5 5.1 5.64 8.05 -10.469999999999999 1.88 -20.674999999999997 3.205 -30.875 5.37a6.57 6.57 0 0 1 -7.785 -3.5c-6.710000000000001 -8.32 -7.785 -7.785 -6.710000000000001 -6.44a62.1 62.1 0 0 0 6.42 10.489999999999998Z" fill="#f8b6b2" stroke-width="2.5"></path>
    <path d="M456.62 453.34499999999997c-0.5 -0.5 -4.779999999999999 -3.775 0.535 -5.1 11 -1.3450000000000002 285.915 -32.755 297.725 -34.095 2.315 0 3.93 2.8449999999999998 0.27 3.755 -28.294999999999998 3.655 -292.845 34.300000000000004 -298.53000000000003 35.44Z" fill="#043f6d" stroke-width="2.5"></path>
    <path d="M377.69 366.09499999999997c73.455 82.5 75.19 80.175 71.95 82.95500000000001 -1.88 1.61 -3.205 -0.28500000000000003 -4.295 -1.61 -14.035 -17.1 -71.68 -79.19 -71.68 -80.275 0 -0.805 -0.02 -5.620000000000001 4.025 -1.07Z" fill="#043f6d" stroke-width="2.5"></path>
    <path d="M493.665 551.87c-3.11 1.595 -6.109999999999999 3.3850000000000002 -7 1.075 -1.07 -4.285 21.58 -14.139999999999999 23.895 -15.035a155.815 155.815 0 0 1 66.31 -10.469999999999999 78 78 0 0 1 11.545000000000002 2.15c11.585 5.775 -43.735 -3.8600000000000003 -94.75 22.28Z" fill="#043f6d" stroke-width="2.5"></path>
    <path d="M590.585 547.575c6.44 2.685 0.265 3.5 -0.81 3.5a155.94 155.94 0 0 0 -38.655 5.1c-0.805 0.27 -7.25 -0.535 -1.075 -3.5 23.955000000000002 -7.675 29.245 -7.705 40.540000000000006 -5.1Z" fill="#043f6d" stroke-width="2.5"></path>
    <path d="M700.385 603.685c-3.22 -5.1 -6.444999999999999 -9.935 -9.665000000000001 -14.764999999999999a4.0649999999999995 4.0649999999999995 0 0 0 -3.22 -0.54c-2.705 0.745 -5.64 1.61 -8.595 2.15 1.615 -3.76 5.37 -4.565 8.595 -6.715 -2.42 -4.025 -4.565 -8.05 -7 -12.344999999999999 -9.68 3.5 -9.1 3.3200000000000003 -11.815 2.415 1.6300000000000001 -2.445 -1.2349999999999999 -1.5 9.935 -6.175000000000001 -3.225 -5.64 -6.175000000000001 -11 -9.399999999999999 -16.645 -2.145 0.805 -4.295 1.61 -6.710000000000001 2.415 0 -3.755 3.22 -4 4.835 -5.635 -2.42 -5.1 -4.835 -10.205 -7.25 -15.575000000000001 0.27 -0.265 0.13 -4.39 4.295 1.3450000000000002 7 9.629999999999999 7.640000000000001 12.350000000000001 9.665000000000001 12.350000000000001 8.86 -1.88 17.450000000000003 -4.03 26.31 -6.175000000000001 -9.13 -16.645 -10.469999999999999 -22.285 3.22 -2.685a3.765 3.765 0 0 0 4.565 2.415c6.435 -0.625 12.885 -0.805 19.865 -1.075a25.805 25.805 0 0 1 -2.145 -5.1c-7 -21.745 3.755 -1.61 3.755 -1.34 4.9399999999999995 14.82 16.904999999999998 2.3200000000000003 22 11.81 -4.295 -0.265 -8.86 -0.535 -14.23 -0.805 2.955 4.565 5.37 8.59 8.055 12.620000000000001 0.63 1.255 13.79 0.095 17.72 4 -4.565 2.415 -9.13 0 -14.23 1.61 2.15 3.5 4.295 7 6.715 10.469999999999999 0.265 0.54 1.61 0.54 2.68 0.54 4.03 0.265 7.79 0.265 11.815 0.535a15.04 15.04 0 0 1 3.22 1.075c0 1.9500000000000002 1.59 0.41000000000000003 -14.5 2.9499999999999997 2.415 4.03 4.565 8.055 7.25 11.815 1.395 1.4000000000000001 6 0.42999999999999994 16.91 1.075 1.055 0 6 1.7599999999999998 4.565 3.22 -5.905 0.535 -11.815 1.075 -18 1.61a37.614999999999995 37.614999999999995 0 0 0 1.875 5.905c7 19.330000000000002 6.715 20.135 -3.5 2.42 -2 -2.6750000000000003 -3.75 -7.25 -6.44 -7.25 -7 1.075 -13.695 2.15 -20.939999999999998 3.22 1.88 4.565 5.37 13.695 6.44 17.185 2.42 6.44 -1.61 0.535 -1.875 0.265 -6.8100000000000005 -9.64 -8.795 -15.57 -11.815 -15.57 -8.055 1.61 -15.84 3.5 -23.895 5.1 2.42 4.295 4.565 8.325 6.715 12.350000000000001 1.88 2.955 -0.27 2.415 -1.3450000000000002 0.805 -1.61 -1.88 -3.5 -3.5 -5.1 -5.37 -1.87 -2.155 -3.5 -5.635 -5.635 -6.175000000000001 -2.835 -0.94 -5.915 1.7349999999999999 -15.035 3.76 1.675 -4 6.775 -4.805 11.34 -7.49Zm-16.915 -37.855c8.59 -2.145 16.915 -4.565 25.235 -6.710000000000001 -2.145 -4.835 -4.5600000000000005 -9.395 -7 -14.764999999999999 -8.86 1.61 -18 3.5 -27.650000000000002 5.37 3.51 5.635 6.444999999999999 11.005 9.415 16.105Zm11.274999999999999 20.135c3.5 5.37 6.715 10.469999999999999 9.935 15.305a1.6600000000000001 1.6600000000000001 0 0 0 1.88 0.535c7.785 -2.15 15.84 -4.295 23.889999999999997 -6.710000000000001 -2.68 -4.565 -5.365 -8.86 -8.05 -13.155a1.7999999999999998 1.7999999999999998 0 0 0 -1.88 -0.805c-8.325 1.61 -16.645 3.22 -25.775000000000002 4.83Zm24.165 -9.395c-2.15 -3.76 -4.565 -7.5 -6.715 -11.274999999999999 -0.96 -1.925 -4.825 0.21499999999999997 -26.575000000000003 4.295 2.415 4.295 4.295 7.5 6.44 11 0.54 0.54 1.615 1.3450000000000002 2.42 1.075 8.05 -1.605 16.105 -3.215 24.43 -5.095Zm8.32 3.22c6.865 11.235 8.275 14.5 9.935 14.5 7 -1.075 13.959999999999999 -2.42 21.205 -3.76 -2.415 -4.03 -4.5600000000000005 -7.785 -7 -11.545000000000002 -0.755 -1.55 -2.75 -1.4050000000000002 -24.14 0.805Zm-20.67 -35.975c7.955 14.584999999999999 5.5649999999999995 14.7 15.035 13.695 5.1 -0.545 10.2 -1.075 15.57 -1.615 -2.15 -4.025 -4.234999999999999 -7.824999999999999 -6.444999999999999 -11.274999999999999a3.46 3.46 0 0 0 -2.415 -1.61c-6.985 0.135 -13.959999999999999 0.54 -21.745 0.805Zm10.469999999999999 19.330000000000002c2.415 4.295 4.565 7.785 7 11.274999999999999a2.7800000000000002 2.7800000000000002 0 0 0 2.145 1.075c7.25 -0.805 14.23 -1.88 21.745 -2.685 -9.69 -14.504999999999999 -2.065 -11.725000000000001 -30.89 -9.665000000000001Z" fill="#043f6d" stroke-width="2.5"></path>
    <path d="M653.135 518.5799999999999c-0.805 -2.415 1.075 -3.76 2.955 -4.295 27.285 -10.049999999999999 55.214999999999996 -8.139999999999999 60.4 -2.955 2.335 2.335 -0.24 3.745 -1.875 3.225 -19.505 -6.21 -42.089999999999996 -0.8200000000000001 -61.48 4.025Z" fill="#043f6d" stroke-width="2.5"></path>
    <path d="M107.615 469.185a43.36 43.36 0 1 1 -43.760000000000005 43.5 43.715 43.715 0 0 1 43.760000000000005 -43.5Zm-6.44 36.78c0 -0.27 -8.86 -17.72 -13.425 -27.115000000000002 -4.295 4.025 -8.055 7.5 -12.350000000000001 11.274999999999999 8.86 5.635 25.505 15.84 25.775000000000002 15.84ZM73.78999999999999 532c4.295 4.565 8.055 8.32 12.08 12.615 5.64 -9.125 16.38 -26.575000000000003 16.38 -26.845 -0.75 0.775 -18.990000000000002 9.5 -28.46 14.23Zm-1.88 -3.5c9.935 -5.1 27.919999999999998 -14.5 27.919999999999998 -14.764999999999999 -10.2 -0.54 -20.4 -0.805 -31.41 -1.3450000000000002 1.08 5.655 2.15 10.485 3.4899999999999998 16.11Zm69.80000000000001 2.9499999999999997c1.615 -5.365 3.225 -10.2 4.835 -15.3 -11 -0.535 -31.41 -1.3450000000000002 -31.68 -1.075 8.86 5.385 17.450000000000003 10.754999999999999 26.845 16.39ZM111.64500000000001 474c-0.54 11 -1.3450000000000002 31.41 -1.075 31.41 5.37 -8.59 10.74 -17.18 16.645 -26.575000000000003 -5.37 -1.595 -10.215 -3.21 -15.57 -4.835Zm-6.175000000000001 30.605000000000004c0.27 0 1.34 -20.135 1.88 -30.87 -5.37 1.07 -10.469999999999999 2.415 -15.84 3.5 4.83 9.665000000000001 9.395 18.525 13.959999999999999 27.385Zm33.824999999999996 30.605000000000004c-8.86 -5.635 -25.77 -15.84 -26.04 -15.57 4.565 8.59 9.125 17.18 13.69 26.31 4.295 -3.4499999999999997 8.055 -6.949999999999999 12.350000000000001 -10.725Zm-41.075 -24.965000000000003c0 -0.27 -16.105 -11 -24.965000000000003 -16.645 -1.61 5.1 -3.225 9.93 -4.835 15.035 10.74 0.55 20.405 1.085 29.8 1.625Zm45.37 -12.889999999999999c-9.395 4.565 -18.255 8.86 -26.845 13.155 0 0.27 19.6 1.3450000000000002 30.07 1.88 -1.075 -5.3549999999999995 -2.15 -10.184999999999999 -3.225 -15.02Zm-20.4 50.475c-4.835 -9.13 -13.959999999999999 -26.044999999999998 -13.959999999999999 -26.044999999999998 -0.27 9.399999999999999 -0.81 19.065 -1.075 29.265 5.1 -1.05 9.665000000000001 -2.135 15.035 -3.205Zm7.8100000000000005 -66.295c-5.37 8.59 -10.469999999999999 16.375 -15.84 24.16 0.265 0.27 17.18 -8.325 26.31 -12.885 -3.785 -3.76 -7.005 -7.52 -10.469999999999999 -11.274999999999999Zm-27.654999999999998 69.26c0.805 -9.93 1.61 -28.725 1.3450000000000002 -28.725 -5.1 7.785 -9.935 15.84 -15.57 24.43 5.074999999999999 1.61 9.379999999999999 2.955 14.2 4.295Z" fill="#043f6d" stroke-width="2.5"></path>
    <path d="M816.895 407.43499999999995c4.03 0 7.79 -0.265 11.545000000000002 0 2.15 0.27 7.5 6.444999999999999 9.13 7.785 -3.5 -0.535 -11.274999999999999 -1.875 -11.815 -2.145 -2.685 -1.61 -5.37 -3.4899999999999998 -8.86 -5.64Z" fill="#043f6d" stroke-width="2.5"></path>
    <path d="M555.145 396.70000000000005c-4.83 0.535 -8.855 1.105 -12.885 1.61 -9.120000000000001 1.145 -18.255 1.88 -27.385 2.9499999999999997 -1.075 0 -2.685 0 -3.22 -0.805 -4.835 -5.635 -9.665000000000001 -11.54 -15.035 -18 5.64 -0.805 30.095 -4.14 37.05 -5.37a6.25 6.25 0 0 1 6.710000000000001 2.415c4.26 5.415 9.395 11.025 14.764999999999999 17.2Z" fill="#f8b6b2" stroke-width="2.5"></path>
    <path d="M675.685 380.86a0.75 0.75 0 0 1 -0.535 1.34c-3.645 0.42999999999999994 -18.745 2.7800000000000002 -34.365 4.03 -4.415 0 -1.29 0.37 -18.79 -18a0.75 0.75 0 0 1 0.535 -1.34c34 -4.6899999999999995 34 -5.715 35.17 -4.565 6.175000000000001 6.175000000000001 12.010000000000002 12.424999999999999 17.985 18.535Z" fill="#f8b6b2" stroke-width="2.5"></path>
    <path d="M579.845 371.73c12.395 -1.55 28.39 -3.04 34.63 -4.025a7 7 0 0 1 6.710000000000001 2.415c4.675000000000001 5.550000000000001 9.665000000000001 11 14.770000000000001 16.915 -7.65 1.09 -6.5249999999999995 0.73 -36.245 4.295a6.385 6.385 0 0 1 -3.22 -0.805c-5.64 -5.64 -11 -11.545000000000002 -16.645 -17.450000000000003Z" fill="#f8b6b2" stroke-width="2.5"></path>
    <path d="M594.075 392.13500000000005c-9.13 1.075 -18 1.6 -26.85 3.5a14.045000000000002 14.045000000000002 0 0 1 -16.105 -7 144 144 0 0 0 -9.399999999999999 -11.274999999999999 1.03 1.03 0 0 1 0.54 -1.61c32.730000000000004 -3.5 28.045 -3.19 31.68 -3.5 1.61 0 2.42 1.065 3.5 2.145a176.195 176.195 0 0 1 16.634999999999998 17.740000000000002Z" fill="#f8b6b2" stroke-width="2.5"></path>
    <path d="M459.57500000000005 388.11c9.125 -1.3450000000000002 14.239999999999998 -2.305 25.235 -3.76 6.45 -0.8550000000000001 9.115 -3.37 12.344999999999999 2.145 5.234999999999999 8.94 8.07 9.285 12.084999999999999 15.305 -15.59 1.73 -22.770000000000003 2.9349999999999996 -32.214999999999996 3.76 -4.1 0 -4.5 -1.6900000000000002 -17.72 -16.38a0.5750000000000001 0.5750000000000001 0 0 1 0.27 -1.07Z" fill="#f8b6b2" stroke-width="2.5"></path>
  </g>
</svg>